<svg width="24" height="24" viewBox="0 0 24 24" fill="none" xmlns="http://www.w3.org/2000/svg">
<rect width="24" height="24" rx="12" fill="#3643BA"/>
<path d="M13.6668 5.33334C14.0606 5.3332 14.448 5.43272 14.7929 5.62262C15.1379 5.81252 15.4292 6.08664 15.6396 6.41942C15.8501 6.75221 15.973 7.13286 15.9967 7.5259C16.0205 7.91895 15.9444 8.31162 15.7755 8.66734L18.0002 8.66667C18.177 8.66667 18.3465 8.73691 18.4716 8.86193C18.5966 8.98696 18.6668 9.15652 18.6668 9.33334V12C18.6668 12.1768 18.5966 12.3464 18.4716 12.4714C18.3465 12.5964 18.177 12.6667 18.0002 12.6667H17.3335V18C17.3335 18.1768 17.2633 18.3464 17.1382 18.4714C17.0132 18.5964 16.8436 18.6667 16.6668 18.6667H7.3335C7.15668 18.6667 6.98712 18.5964 6.86209 18.4714C6.73707 18.3464 6.66683 18.1768 6.66683 18V12.6667H6.00016C5.82335 12.6667 5.65378 12.5964 5.52876 12.4714C5.40373 12.3464 5.3335 12.1768 5.3335 12V9.33334C5.3335 9.15652 5.40373 8.98696 5.52876 8.86193C5.65378 8.73691 5.82335 8.66667 6.00016 8.66667L8.22483 8.66734C7.98733 8.16845 7.93458 7.60147 8.07596 7.06734C8.21735 6.5332 8.54369 6.06657 8.99689 5.7505C9.4501 5.43444 10.0008 5.28947 10.5509 5.34138C11.1009 5.3933 11.6148 5.63873 12.0008 6.034C12.2175 5.81169 12.4766 5.63512 12.7628 5.51477C13.049 5.39441 13.3564 5.33272 13.6668 5.33334ZM16.0002 12.6667H8.00016V17.3333H16.0002V12.6667ZM17.3335 10H6.66683V11.3333H17.3335V10ZM10.3335 6.66667C10.0767 6.6668 9.82977 6.76572 9.6439 6.94294C9.45804 7.12016 9.34749 7.3621 9.33515 7.61861C9.3228 7.87513 9.40962 8.12656 9.57761 8.3208C9.7456 8.51505 9.98188 8.63722 10.2375 8.662L10.3335 8.66667H11.3335V7.66667C11.3335 7.41808 11.2409 7.17841 11.0738 6.99439C10.9066 6.81037 10.6769 6.6952 10.4295 6.67134L10.3335 6.66667ZM13.6668 6.66667L13.5708 6.67134C13.3397 6.69348 13.1236 6.79532 12.9594 6.95941C12.7951 7.1235 12.6931 7.3396 12.6708 7.57067L12.6668 7.66667V8.66667H13.6668L13.7628 8.662C14.0102 8.63802 14.2397 8.5228 14.4068 8.33879C14.5738 8.15479 14.6663 7.91518 14.6663 7.66667C14.6663 7.41816 14.5738 7.17855 14.4068 6.99454C14.2397 6.81054 14.0102 6.69532 13.7628 6.67134L13.6668 6.66667Z" fill="white"/>
</svg>
